<?xml version="1.0" encoding="UTF-8"?>
<svg xmlns="http://www.w3.org/2000/svg" viewBox="0 0 32 32" width="32" height="32">
  <!-- Background circle for better visibility -->
  <circle cx="16" cy="16" r="15" fill="#ffffff" stroke="#e5e7eb" stroke-width="1"/>
  
  <!-- Specialty One logo properly scaled and centered -->
  <g transform="translate(4, 2) scale(0.33, 0.26)" fill="#1f2937">
    <polygon points="20.7 0 0 20.7 0 65.7 18.7 65.7 26.2 65.7 35.6 65.7 26.2 57.3 26.2 28.8 17.1 28.8 26.2 19.7 26.2 19.7 26.2 19.7 47.1 19.7 47.1 32.1 73.3 32.1 73.3 0 20.7 0"/>
    <polygon points="47.1 41.9 37.8 41.9 47.1 50.4 47.1 88 26.2 88 26.2 75.6 0 75.6 0 107.7 52.7 107.7 73.3 87 73.3 41.9 54.6 41.9 47.1 41.9"/>
  </g>
</svg>